# xmcd
#
# Track frame offsets:
#	150
#	18537
#	37990
#	58850
#	75840
#	92852
#	109087
#	123697
#	140170
#	158907
#	176045
#	194275
#	218250
#	234337
#	252400
#	266125
#
# Disc length: 3809
#
# Revision: 3
# Processed by: cddbd v1.5.1PL0 Copyright (c) Steve Scherf et al.
# Submitted via: Easy CD Ripper v2.15
# Normalized: r1:DSETVAR1,TSWAP
#
DISCID=de0edf10
DTITLE=Various Artist - Love Song Dedications
DYEAR=1997
DGENRE=Blues
TTITLE0=Human Nature - Wishes
TTITLE1=Roxette - It Must Have been Love
TTITLE2=Terence Trent D'Arby - Sign Your Name
TTITLE3=Glenn Medeiros - Nothing's Gonna Change My Love
TTITLE4=Benny Mardones - Into The Night
TTITLE5=The Righteous Brothers - Unchained Melody
TTITLE6=Bread - Make It With You
TTITLE7=Vanessa Williams - Save The Best For Last
TTITLE8=Leo Sayer - When I Need You
TTITLE9=Phyllis Nelson - Move Closer
TTITLE10=Daryl Braithwaite - As The Days Go By
TTITLE11=Julee Cruise - Falling
TTITLE12=Richard Marx - Now And Forever
TTITLE13=Tommy Emmanuel - Since We Met
TTITLE14=Johnny Logan - Hold Me Now
TTITLE15=Margaret Urlich - Gonna Make You Mine
EXTD=
EXTT0=
EXTT1=
EXTT2=
EXTT3=Glenn Medeiros
EXTT4=
EXTT5=
EXTT6=
EXTT7=
EXTT8=
EXTT9=
EXTT10=
EXTT11=
EXTT12=
EXTT13=
EXTT14=
EXTT15=
PLAYORDER=
